<svg
  width="85.7" height="100" viewBox="0 0 16 13.714285"
  xmlns="http://www.w3.org/2000/svg">
  <rect style="fill:#fff;fill-rule:evenodd;stroke:none;stroke-width:1.4"
    width="12.145799"
    height="13.100685"
    x=".9977023"
    y=".34351882">
  </rect>
  <path
    style="fill:#138313;fill-opacity:1;fill-rule:evenodd;stroke:none;stroke-width:2.96416;stroke-linecap:butt;stroke-linejoin:round;stroke-miterlimit:10;stroke-dasharray:none;stroke-dashoffset:0;stroke-opacity:1;paint-order:markers fill stroke" d="M.59179688.0C.26433254.0.0.26433254.0.59179688V13.123047C0 13.450511.26433254 13.714844.59179688 13.714844H15.408203C15.735667 13.714844 16 13.450511 16 13.123047V.59179688C16 .26433254 15.735667.0 15.408203.0H.59179688zM7.2167969.99023438C8.5960693 2.2510762 9.5214844 4.7206273 9.5214844 6.8574219c0 2.1368293-.9254151 4.6043911-2.3046875 5.8652341L5.734375 11.542969c.9238522-1.526282 1.2753906-2.9203467 1.2753906-4.6855471.0-1.7784501-.3515384-3.1581113-1.2753906-4.7109375L7.2167969.99023438zm-3.75 2.53515622c.7546961.0 1.3925781.6501449 1.3925781 1.4199219S4.221493 6.3652344 3.4667969 6.3652344 2.0742188 5.7150895 2.0742188 4.9453125C2.0742186 4.1755355 2.7121008 3.5253906 3.4667969 3.5253906zm0 3.8222656c.7546961.0 1.3925781.6501176 1.3925781 1.4199219.0.7697854-.637882 1.4199219-1.3925781 1.4199219S2.0742188 9.5373635 2.0742188 8.7675781C2.0742186 7.9977738 2.7121008 7.3476562 3.4667969 7.3476562z">
  </path>
</svg>
